<svg width="150" viewBox="0 0 227 227" fill="none" xmlns="http://www.w3.org/2000/svg">
<g clip-path="url(#clip0)">
<mask id="mask0" mask-type="alpha" maskUnits="userSpaceOnUse" x="0" y="0" width="227" height="227">
<path d="M223.674 110.175H170.135V102.609H184.58C186.416 102.609 187.905 101.121 187.905 99.2842C187.905 97.4478 186.416 95.959 184.58 95.959H170.135V88.3931H180.164C183.9 88.3931 187.413 86.9385 190.054 84.2965L211.923 62.4275C213.348 63.1373 214.928 63.515 216.566 63.515C219.353 63.515 221.973 62.4297 223.944 60.4594C225.915 58.4887 227 55.8689 227 53.0819C227 50.295 225.915 47.6752 223.944 45.7045C221.974 43.7337 219.353 42.6484 216.566 42.6484C213.78 42.6484 211.16 43.7337 209.189 45.704C207.218 47.6747 206.133 50.2945 206.133 53.0815C206.133 54.7201 206.511 56.2998 207.221 57.7248L185.351 79.5938C183.966 80.9793 182.123 81.7428 180.163 81.7428H170.135V74.4061C170.135 64.7338 162.265 56.8651 152.594 56.8651H145.257V27.4284C149.384 26.0367 152.365 22.132 152.365 17.5415C152.365 11.7885 147.684 7.1084 141.932 7.1084C136.179 7.1084 131.499 11.7889 131.499 17.5415C131.499 22.132 134.48 26.0362 138.606 27.4284V56.8647H131.041V42.4196C131.041 40.5832 129.552 39.0944 127.716 39.0944C125.879 39.0944 124.391 40.5832 124.391 42.4196V56.8647H116.825V3.32567C116.825 1.48928 115.336 0.000488281 113.5 0.000488281C111.663 0.000488281 110.174 1.48928 110.174 3.32567V56.8647H102.609V42.4196C102.609 40.5832 101.12 39.0944 99.2837 39.0944C97.4474 39.0944 95.9586 40.5832 95.9586 42.4196V56.8647H88.3931V46.8363C88.3931 43.1002 86.938 39.5874 84.296 36.9459L62.4194 15.0693C64.352 11.1673 63.7043 6.30193 60.4594 3.05655C56.3911 -1.01125 49.7722 -1.01081 45.7044 3.05655C41.6366 7.12436 41.6366 13.7432 45.7044 17.8115C47.7385 19.8452 50.4102 20.8622 53.0819 20.8622C54.6727 20.8622 56.2608 20.4929 57.7172 19.7716L79.5938 41.6486C80.9797 43.0341 81.7427 44.8767 81.7427 46.8363V56.8647H74.4061C72.923 56.8647 71.448 57.0509 70.0221 57.4175C68.2438 57.8751 67.1731 59.688 67.6307 61.4667C68.0882 63.2455 69.9016 64.3162 71.6799 63.8582C72.5644 63.6307 73.4812 63.515 74.4056 63.515H152.594C158.599 63.515 163.484 68.4008 163.484 74.4057V152.594C163.484 153.518 163.369 154.434 163.142 155.318C162.685 157.096 163.756 158.909 165.534 159.366C165.812 159.437 166.09 159.471 166.365 159.471C167.846 159.471 169.197 158.474 169.583 156.973C169.949 155.549 170.135 154.075 170.135 152.594V145.257H199.571C200.963 149.384 204.867 152.365 209.458 152.365C215.211 152.365 219.891 147.685 219.891 141.932C219.891 136.179 215.21 131.499 209.458 131.499C204.867 131.499 200.963 134.48 199.571 138.606H170.135V131.041H184.58C186.416 131.041 187.905 129.552 187.905 127.715C187.905 125.879 186.416 124.39 184.58 124.39H170.135V116.825H223.674C225.51 116.825 226.999 115.336 226.999 113.5C226.999 111.664 225.51 110.175 223.674 110.175ZM213.891 50.4072C214.606 49.6925 215.556 49.2992 216.566 49.2992C217.576 49.2992 218.526 49.6925 219.241 50.4072C219.956 51.1218 220.349 52.0715 220.349 53.0819C220.349 54.0923 219.956 55.042 219.241 55.7567C218.526 56.4714 217.576 56.8647 216.566 56.8647C215.556 56.8647 214.606 56.4714 213.891 55.7567C213.177 55.042 212.783 54.0923 212.783 53.0819C212.783 52.0715 213.177 51.1214 213.891 50.4072ZM55.7562 13.1092C54.2816 14.5834 51.8817 14.5839 50.4062 13.1088C48.9312 11.6337 48.9312 9.23385 50.4062 7.75925C51.144 7.0215 52.1123 6.65307 53.0814 6.65307C54.0502 6.65307 55.0189 7.02194 55.7562 7.75925C57.2313 9.2343 57.2313 11.6342 55.7562 13.1092ZM141.932 21.3242C139.846 21.3242 138.149 19.627 138.149 17.5415C138.149 15.4559 139.846 13.7588 141.932 13.7588C144.018 13.7588 145.714 15.4559 145.714 17.5415C145.714 19.627 144.017 21.3242 141.932 21.3242ZM209.458 138.149C211.544 138.149 213.241 139.847 213.241 141.932C213.241 144.018 211.544 145.715 209.458 145.715C207.373 145.715 205.675 144.018 205.675 141.932C205.675 139.846 207.372 138.149 209.458 138.149Z" fill="black"/>
<path d="M181.295 209.189C178.05 205.944 173.184 205.296 169.282 207.228L147.406 185.351C146.02 183.966 145.257 182.123 145.257 180.164V170.135H152.593C154.077 170.135 155.551 169.949 156.977 169.583C158.755 169.125 159.826 167.312 159.368 165.533C158.91 163.755 157.098 162.684 155.319 163.142C154.435 163.369 153.518 163.485 152.593 163.485H74.4056C68.4003 163.485 63.515 158.599 63.515 152.594V74.406C63.515 73.4816 63.6302 72.5648 63.8577 71.6812C64.3157 69.9028 63.245 68.09 61.4667 67.632C59.6879 67.174 57.875 68.2447 57.4175 70.023C57.0504 71.448 56.8646 72.9226 56.8646 74.406V81.7427H27.4279C26.0362 77.6159 22.1315 74.6348 17.541 74.6348C11.788 74.6348 7.10791 79.3149 7.10791 85.0679C7.10791 90.8209 11.7884 95.501 17.541 95.501C22.1315 95.501 26.0357 92.5199 27.4279 88.3931H56.8642V95.959H42.4191C40.5827 95.959 39.0939 97.4478 39.0939 99.2842C39.0939 101.121 40.5827 102.609 42.4191 102.609H56.8642V110.175H3.32518C1.48879 110.175 0 111.664 0 113.5C0 115.336 1.48879 116.825 3.32518 116.825H56.8642V124.391H42.4191C40.5827 124.391 39.0939 125.879 39.0939 127.716C39.0939 129.552 40.5827 131.041 42.4191 131.041H56.8642V138.607H46.8354C43.0992 138.607 39.5865 140.062 36.945 142.704L15.0759 164.573C13.651 163.863 12.0713 163.485 10.4326 163.485C7.6457 163.485 5.0259 164.57 3.05518 166.541C1.08534 168.511 0 171.132 0 173.918C0 176.705 1.08534 179.325 3.05606 181.296C5.02635 183.266 7.64659 184.351 10.4335 184.351C13.2205 184.351 15.8403 183.266 17.811 181.296C19.7817 179.325 20.8671 176.705 20.8671 173.918C20.8671 172.279 20.4893 170.7 19.7795 169.275L41.6486 147.406C43.0341 146.02 44.8767 145.257 46.8367 145.257H56.8655V152.593C56.8655 162.266 64.7346 170.134 74.4065 170.134H81.7432V199.571C77.6164 200.962 74.6353 204.867 74.6353 209.458C74.6353 215.211 79.3158 219.891 85.0684 219.891C90.8209 219.891 95.5014 215.21 95.5014 209.458C95.5014 204.867 92.5203 200.963 88.3935 199.571V170.134H95.959V184.58C95.959 186.416 97.4478 187.905 99.2842 187.905C101.121 187.905 102.609 186.416 102.609 184.58V170.134H110.174V223.674C110.174 225.511 111.663 227 113.5 227C115.336 227 116.825 225.511 116.825 223.674V170.135H124.39V184.58C124.39 186.417 125.879 187.906 127.715 187.906C129.552 187.906 131.041 186.417 131.041 184.58V170.135H138.606V180.164C138.606 183.9 140.061 187.413 142.703 190.054L164.58 211.931C162.647 215.833 163.295 220.698 166.54 223.943C168.574 225.978 171.246 226.994 173.918 226.994C176.589 226.994 179.261 225.978 181.295 223.943C185.363 219.876 185.363 213.257 181.295 209.189ZM17.541 88.8506C15.455 88.8506 13.7583 87.1535 13.7583 85.0679C13.7583 82.9819 15.4554 81.2852 17.541 81.2852C19.6266 81.2852 21.3237 82.9823 21.3237 85.0679C21.3242 87.1539 19.627 88.8506 17.541 88.8506ZM13.1079 176.593C12.3932 177.308 11.4435 177.701 10.4331 177.701C9.42268 177.701 8.47301 177.308 7.75832 176.593C7.04362 175.878 6.65036 174.929 6.65036 173.918C6.65036 172.908 7.04362 171.958 7.75832 171.243C8.47301 170.529 9.42268 170.135 10.4331 170.135C11.4435 170.135 12.3932 170.529 13.1079 171.243C13.8226 171.958 14.2158 172.908 14.2158 173.918C14.2158 174.929 13.8226 175.879 13.1079 176.593ZM88.8502 209.459C88.8502 211.544 87.1535 213.241 85.0675 213.241C82.9815 213.241 81.2847 211.544 81.2847 209.459C81.2847 207.373 82.9819 205.676 85.0675 205.676C87.153 205.676 88.8502 207.373 88.8502 209.459ZM176.593 219.241C175.118 220.716 172.718 220.716 171.243 219.241C169.768 217.766 169.768 215.366 171.243 213.892C171.981 213.154 172.949 212.786 173.918 212.786C174.887 212.786 175.856 213.154 176.593 213.892C178.068 215.366 178.068 217.766 176.593 219.241Z" fill="black"/>
<path d="M148.811 104.616C148.811 97.504 143.609 91.4801 136.489 89.5227C136.699 88.6533 136.816 87.759 136.816 86.8453C136.816 80.1125 130.84 74.6348 123.495 74.6348C119.517 74.6348 115.943 76.2437 113.5 78.7868C111.057 76.2437 107.483 74.6348 103.504 74.6348C96.1594 74.6348 90.1838 80.1125 90.1838 86.8453C90.1838 87.759 90.3009 88.6533 90.5114 89.5227C83.3907 91.4797 78.1892 97.5036 78.1892 104.616C78.1892 108.091 79.4191 111.37 81.6913 114.078C79.4696 116.954 78.1892 120.446 78.1892 124.163C78.1883 129.816 81.2094 135.095 86.1852 138.37C86.1852 138.373 86.1852 138.375 86.1852 138.378C86.1852 146.091 93.0577 152.366 101.505 152.366C106.36 152.366 110.691 150.291 113.5 147.064C116.309 150.291 120.64 152.366 125.495 152.366C133.624 152.366 140.292 146.553 140.782 139.241C145.72 136.376 148.811 131.358 148.811 125.939C148.811 121.953 147.111 118.151 144.187 115.277C147.111 112.404 148.811 108.601 148.811 104.616ZM137.042 118.218C140.246 119.909 142.159 122.795 142.159 125.939C142.159 128.283 141.07 130.519 139.23 132.191C137.482 128.954 134.392 126.377 130.488 125.151C128.737 124.601 126.87 125.575 126.319 127.327C125.769 129.079 126.743 130.945 128.495 131.495C131.885 132.561 134.163 135.327 134.163 138.379C134.163 142.424 130.274 145.716 125.493 145.716C120.713 145.716 116.823 142.424 116.823 138.379V117.054C116.823 113.009 120.713 109.718 125.493 109.718C127.329 109.718 128.818 108.229 128.818 106.392C128.818 104.556 127.329 103.067 125.493 103.067C122.277 103.067 119.29 103.979 116.823 105.531V101.284C116.823 99.4473 115.335 97.9585 113.498 97.9585C111.662 97.9585 110.173 99.4473 110.173 101.284V119.744C109.054 119.041 107.827 118.46 106.499 118.043C104.746 117.492 102.881 118.467 102.33 120.218C101.78 121.97 102.754 123.837 104.506 124.387C107.896 125.453 110.173 128.219 110.173 131.27V138.378C110.173 142.424 106.284 145.715 101.504 145.715C96.7229 145.715 92.8338 142.424 92.8338 138.378C92.8338 136.644 93.5688 134.958 94.9034 133.632C96.2059 132.337 96.2121 130.232 94.9175 128.929C93.6229 127.627 91.5179 127.62 90.2153 128.915C89.4186 129.707 88.7327 130.573 88.1625 131.493C86.0628 129.506 84.8369 126.893 84.8369 124.162C84.8369 119.235 88.7034 114.907 94.2396 113.637C96.0295 113.226 97.1476 111.442 96.7371 109.652C96.3265 107.862 94.542 106.745 92.7526 107.155C90.5239 107.666 88.472 108.52 86.6525 109.64C85.4727 108.158 84.8374 106.423 84.8374 104.615C84.8387 99.6131 89.58 95.5413 95.4247 95.5027C95.4544 95.5036 95.4842 95.5076 95.5134 95.5076C96.2724 95.5076 97.0355 95.2491 97.6602 94.7202C98.9348 93.6411 99.1906 91.81 98.3349 90.4325C98.3097 90.3917 98.2866 90.35 98.26 90.3106C98.2463 90.2906 98.2299 90.2715 98.2157 90.2516C98.1642 90.1793 98.1115 90.1084 98.0543 90.0401C98.0525 90.0379 98.0512 90.0357 98.0494 90.0339C97.4948 89.3782 96.8328 88.2928 96.8328 86.8448C96.8328 83.779 99.8255 81.2847 103.503 81.2847C107.181 81.2847 110.173 83.779 110.173 86.8448C110.173 88.6812 111.662 90.17 113.499 90.17C115.335 90.17 116.824 88.6812 116.824 86.8448C116.824 83.779 119.817 81.2847 123.494 81.2847C127.172 81.2847 130.164 83.779 130.164 86.8448C130.164 87.6642 129.95 88.3629 129.666 88.9375C127.774 89.1162 125.945 89.5733 124.208 90.3057C122.516 91.0191 121.723 92.9694 122.436 94.6617C123.15 96.3535 125.1 97.1476 126.792 96.4338C128.23 95.8277 129.776 95.516 131.389 95.5036C131.421 95.5045 131.452 95.5076 131.484 95.5076C131.514 95.5076 131.543 95.5036 131.573 95.5027C137.418 95.5409 142.159 99.6131 142.159 104.615C142.159 107.758 140.246 110.645 137.042 112.336C135.952 112.912 135.269 114.044 135.269 115.277C135.269 116.51 135.952 117.642 137.042 118.218Z" fill="black"/>
</mask>
<g mask="url(#mask0)">
<rect y="0.000488281" width="227" height="226.999" fill="url(#paint0_linear)"/>
<rect y="0.000488281" width="227" height="226.999" fill="url(#paint1_linear)"/>
</g>
</g>
<defs>
<linearGradient id="paint0_linear" x1="71.715" y1="69.1512" x2="213.353" y2="233.672" gradientUnits="userSpaceOnUse">
<stop stop-color="#2EC4B6"/>
<stop offset="1" stop-color="#C4C4C4" stop-opacity="0"/>
<stop offset="1" stop-color="#403535"/>
</linearGradient>
<linearGradient id="paint1_linear" x1="174.769" y1="203.791" x2="72.2691" y2="74.4058" gradientUnits="userSpaceOnUse">
<stop stop-color="#011627"/>
<stop offset="1" stop-color="#002E53" stop-opacity="0"/>
</linearGradient>
<clipPath id="clip0">
<rect width="227" height="227" fill="white"/>
</clipPath>
</defs>
</svg>
