<svg width="150" viewBox="0 0 193 193" fill="none" xmlns="http://www.w3.org/2000/svg">
<g clip-path="url(#clip0)">
<mask id="mask0" mask-type="alpha" maskUnits="userSpaceOnUse" x="0" y="0" width="193" height="194">
<path d="M109.714 91.5277C110.283 92.6408 111.416 93.2839 112.586 93.2839C113.075 93.2839 113.577 93.1712 114.044 92.9333C114.233 92.8368 133.167 83.219 142.504 80.2693C144.197 79.7322 145.136 77.9243 144.598 76.2326C144.064 74.5404 142.27 73.5981 140.562 74.1322C130.725 77.2428 111.921 86.7962 111.123 87.2014C109.54 88.0055 108.91 89.9422 109.714 91.5277Z" fill="black"/>
<path d="M112.586 54.6845C113.075 54.6845 113.577 54.5718 114.044 54.334C114.233 54.2375 133.167 44.6196 142.504 41.67C144.197 41.1328 145.136 39.325 144.598 37.6332C144.064 35.9411 142.27 34.9987 140.562 35.5328C130.725 38.6434 111.921 48.1969 111.123 48.6021C109.541 49.4061 108.91 51.3425 109.714 52.9283C110.283 54.0411 111.415 54.6845 112.586 54.6845Z" fill="black"/>
<path d="M189.783 48.2512C188.004 48.2512 186.566 49.6922 186.566 51.4677V176.917C186.566 182.237 182.237 186.567 176.917 186.567H99.7171V179.165C104.407 177.525 116.624 173.7 128.667 173.7C156.687 173.7 175.714 179.905 175.903 179.969C176.871 180.291 177.952 180.13 178.798 179.525C179.638 178.921 180.133 177.949 180.133 176.916V35.3847C180.133 33.8762 179.088 32.57 177.614 32.2451C177.614 32.2451 175.092 31.6823 170.782 30.8907C169.042 30.5692 167.36 31.7272 167.038 33.4706C166.716 35.2204 167.871 36.8963 169.618 37.2178C171.261 37.5201 172.638 37.787 173.7 37.9996V172.642C166.411 170.731 150.225 167.267 128.667 167.267C114.651 167.267 100.885 171.87 96.6254 173.43C92.8393 171.757 81.3947 167.267 67.5501 167.267C45.3937 167.267 27.1425 170.921 19.3004 172.777V37.8741C25.7241 36.2947 44.696 32.1678 67.5501 32.1678C79.2781 32.1678 89.3363 35.8186 93.2833 37.4689V164.05C93.2833 165.208 93.9072 166.28 94.914 166.849C95.9209 167.421 97.1625 167.405 98.1565 166.807C98.4751 166.617 130.345 147.581 158.633 138.153C159.948 137.712 160.833 136.487 160.833 135.1V3.21805C160.833 2.16296 160.315 1.17535 159.446 0.574119C158.584 -0.0274932 157.478 -0.165834 156.484 0.204331C130.748 9.85727 104.706 26.0627 104.445 26.2237C102.94 27.1661 102.48 29.1507 103.422 30.6563C104.362 32.1618 106.346 32.6217 107.855 31.6793C108.093 31.5281 130.748 17.4328 154.399 7.92126V132.798C132.442 140.428 109.517 152.886 99.7164 158.463V35.3847C99.7164 34.1657 99.028 33.0525 97.9375 32.5059C97.3842 32.2327 84.2026 25.7348 67.5501 25.7348C38.4846 25.7348 16.1386 32.0234 15.1992 32.2933C13.8192 32.6858 12.867 33.95 12.867 35.3847V176.917C12.867 177.924 13.3431 178.876 14.1441 179.484C14.7103 179.912 15.3922 180.134 16.0839 180.134C16.3798 180.134 16.6757 180.092 16.9652 180.008C17.1873 179.947 39.4303 173.701 67.5501 173.701C79.3102 173.701 89.3589 177.361 93.2833 179.005V186.567H16.0839C10.7637 186.567 6.43401 182.237 6.43401 176.917V51.468C6.43401 49.6926 4.99293 48.2515 3.21749 48.2515C1.44206 48.2515 0.000976562 49.6926 0.000976562 51.468V176.917C0.000976562 185.785 7.2158 193 16.0843 193H176.917C185.785 193 193 185.786 193 176.917V51.468C192.999 49.6922 191.562 48.2512 189.783 48.2512Z" fill="black"/>
<path d="M109.714 72.2279C110.283 73.341 111.416 73.9841 112.586 73.9841C113.075 73.9841 113.577 73.8714 114.044 73.6336C114.233 73.5371 133.167 63.9192 142.504 60.9695C144.197 60.4324 145.136 58.6245 144.598 56.9328C144.064 55.2406 142.27 54.2983 140.562 54.8324C130.725 57.943 111.921 67.4964 111.123 67.9017C109.54 68.7057 108.91 70.6425 109.714 72.2279Z" fill="black"/>
<path d="M109.714 110.828C110.283 111.941 111.416 112.584 112.586 112.584C113.075 112.584 113.577 112.471 114.044 112.233C114.233 112.137 133.167 102.519 142.504 99.5691C144.197 99.032 145.136 97.2241 144.598 95.5324C144.064 93.8402 142.27 92.8979 140.562 93.432C130.725 96.5426 111.921 106.096 111.123 106.501C109.54 107.305 108.91 109.242 109.714 110.828Z" fill="black"/>
<path d="M77.9337 59.696C58.0711 55.035 35.4997 60.9731 34.5509 61.2272C32.8365 61.6871 31.8169 63.4497 32.2767 65.1675C32.6627 66.6052 33.9621 67.5509 35.3809 67.5509C35.6576 67.5509 35.9373 67.5155 36.2174 67.4416C36.433 67.3805 58.1645 61.6645 76.4674 65.9587C78.1881 66.3609 79.9285 65.2896 80.3337 63.559C80.7386 61.8318 79.6643 60.1013 77.9337 59.696Z" fill="black"/>
<path d="M77.9337 78.9961C58.0711 74.3385 35.4997 80.2732 34.5509 80.5272C32.8365 80.9871 31.8169 82.7501 32.2767 84.4675C32.6627 85.9052 33.9621 86.851 35.3809 86.851C35.6576 86.851 35.9373 86.8155 36.2174 86.7416C36.433 86.6806 58.1645 80.9645 76.4674 85.2587C78.1881 85.6609 79.9285 84.5896 80.3337 82.8591C80.7386 81.1319 79.6643 79.4013 77.9337 78.9961Z" fill="black"/>
<path d="M109.714 130.128C110.283 131.241 111.416 131.884 112.586 131.884C113.075 131.884 113.577 131.771 114.044 131.533C114.233 131.437 133.167 121.819 142.504 118.869C144.197 118.332 145.136 116.524 144.598 114.832C144.064 113.141 142.27 112.198 140.562 112.732C130.725 115.843 111.921 125.396 111.123 125.801C109.54 126.605 108.91 128.542 109.714 130.128Z" fill="black"/>
<path d="M77.9337 98.296C58.0711 93.6384 35.4997 99.5697 34.5509 99.8271C32.8365 100.287 31.8169 102.05 32.2767 103.767C32.6627 105.205 33.9621 106.154 35.3809 106.154C35.6576 106.154 35.9373 106.116 36.2174 106.042C36.433 105.98 58.1645 100.264 76.4674 104.559C78.1881 104.961 79.9285 103.89 80.3337 102.159C80.7386 100.432 79.6643 98.7012 77.9337 98.296Z" fill="black"/>
<path d="M77.9337 136.895C58.0711 132.235 35.4997 138.173 34.5509 138.427C32.8365 138.887 31.8169 140.65 32.2767 142.367C32.6627 143.805 33.9621 144.754 35.3809 144.754C35.6576 144.754 35.9373 144.715 36.2174 144.641C36.433 144.58 58.1645 138.864 76.4674 143.158C78.1881 143.557 79.9285 142.489 80.3337 140.758C80.7386 139.031 79.6643 137.301 77.9337 136.895Z" fill="black"/>
<path d="M77.9337 117.596C58.0711 112.935 35.4997 118.869 34.5509 119.127C32.8365 119.587 31.8169 121.35 32.2767 123.067C32.6627 124.505 33.9621 125.454 35.3809 125.454C35.6576 125.454 35.9373 125.416 36.2174 125.341C36.433 125.28 58.1645 119.564 76.4674 123.858C78.1881 124.261 79.9285 123.189 80.3337 121.459C80.7386 119.732 79.6643 118.001 77.9337 117.596Z" fill="black"/>
</mask>
<g mask="url(#mask0)">
<rect width="193" height="193" fill="url(#paint0_linear)"/>
</g>
</g>
<defs>
<linearGradient id="paint0_linear" x1="12.2875" y1="51.261" x2="193" y2="196.604" gradientUnits="userSpaceOnUse">
<stop stop-color="#2EC4B6"/>
<stop offset="1" stop-color="#011627"/>
</linearGradient>
<clipPath id="clip0">
<rect width="193" height="193" fill="white"/>
</clipPath>
</defs>
</svg>
