<svg width="150" viewBox="0 0 60 60" fill="none" xmlns="http://www.w3.org/2000/svg">
<g clip-path="url(#clip0)">
<mask id="mask0" mask-type="alpha" maskUnits="userSpaceOnUse" x="0" y="-1" width="60" height="62">
<path d="M51.768 44.0001C52.0856 42.3142 52.0775 40.583 51.744 38.9001L56.324 27.8471C56.3245 27.8398 56.3245 27.8324 56.324 27.8251C57.0662 25.7932 58.1539 23.9047 59.539 22.2431C59.8837 21.8791 60.0223 21.3662 59.908 20.8781L58.03 12.7681C58.0077 12.6833 57.974 12.6019 57.93 12.5261C57.922 12.5111 57.919 12.4931 57.911 12.4791C57.903 12.4651 57.868 12.4311 57.848 12.4051C57.8071 12.3452 57.7598 12.2899 57.707 12.2401C57.6722 12.2156 57.6358 12.1936 57.598 12.1741C57.5492 12.1382 57.4974 12.1068 57.443 12.0801C57.3676 12.0516 57.289 12.0325 57.209 12.0231C57.186 12.0231 57.166 12.0081 57.143 12.0061C56.9513 11.9933 56.76 12.036 56.592 12.1291C56.577 12.1371 56.559 12.1401 56.544 12.1491H56.534L49.473 16.5561C49.0454 16.8209 48.78 17.2833 48.767 17.7861C48.5709 19.9453 48.0021 22.0541 47.086 24.0191V24.0301L44.797 29.5631C43.6735 28.9659 42.4708 28.5315 41.225 28.2731C41.6966 25.018 41.87 21.7267 41.743 18.4401C43.6045 16.2067 44.4979 13.3228 44.225 10.4281C43.6 4.60012 38.333 0.391119 38.108 0.214119C37.7698 -0.0521891 37.2992 -0.0722171 36.9396 0.164398C36.58 0.401014 36.4122 0.841176 36.523 1.25712C37.038 3.19112 36.592 5.23212 32.788 9.42912C31.0789 11.0794 30.5372 13.5992 31.417 15.8061C31.7534 16.6502 32.2354 17.4287 32.841 18.1061C32.599 19.6511 32.409 21.1141 32.278 22.5391C32.0524 24.896 31.9943 27.266 32.104 29.6311C31.2119 30.1148 30.3767 30.6967 29.614 31.3661L24.764 10.6261C24.764 10.6051 24.744 10.5901 24.738 10.5711C24.7217 10.5044 24.6983 10.4397 24.668 10.3781L19.714 1.22912C19.2182 0.313392 18.1709 -0.157173 17.157 0.0802889C16.1431 0.317751 15.4136 1.20447 15.376 2.24512L15 12.6401C15.0003 12.7151 15.0086 12.7899 15.025 12.8631C15.025 12.8791 15.025 12.8931 15.025 12.9081L19.973 34.0251C19.1925 34.0596 18.4176 34.1752 17.661 34.3701L12.218 21.2251C11.7816 20.2203 10.6239 19.7461 9.60801 20.1561L1.28901 23.6001C0.270876 24.0251 -0.21297 25.1925 0.206009 26.2131L7.58801 44.0211C3.26152 44.2483 -0.0968184 47.8802 0.0148518 52.2112C0.126522 56.5422 3.66756 59.9962 8.00001 60.0001H52C54.8581 59.9587 57.477 58.3956 58.8702 55.8997C60.2634 53.4037 60.2192 50.3541 58.7542 47.8997C57.2893 45.4452 54.6261 43.9587 51.768 44.0001ZM50.749 18.1161L54.941 15.5001L53.457 19.0841C53.2455 19.5944 53.4877 20.1796 53.998 20.3911C54.5083 20.6026 55.0935 20.3604 55.305 19.8501L56.789 16.2661L57.9 21.0791C56.7113 22.5293 55.7349 24.1411 55 25.8661C53.9574 26.3494 52.7602 26.3745 51.6983 25.9353C50.6364 25.4961 49.8066 24.6327 49.41 23.5541C50.1123 21.8142 50.5632 19.9832 50.749 18.1161ZM48.449 25.9671C49.1106 26.7759 49.9691 27.401 50.942 27.7821C51.7154 28.1147 52.5472 28.2902 53.389 28.2981C53.5915 28.2974 53.7939 28.285 53.995 28.2611L50.804 35.9611C49.8485 33.8544 48.3704 32.0269 46.51 30.6521L48.449 25.9671ZM34.749 18.8251L39.773 19.1321C39.804 20.0661 39.793 21.0321 39.762 22.0131C38.0883 22.1327 36.4064 22.0515 34.752 21.7711C34.626 21.7531 34.503 21.7391 34.378 21.7221C34.478 20.7801 34.6 19.8261 34.747 18.8251H34.749ZM34.272 10.7721C36.927 7.84312 38.303 5.59012 38.623 3.47212C40.5314 5.43566 41.7912 7.93767 42.232 10.6401C42.442 12.9927 41.7146 15.3331 40.208 17.1521C38.2327 17.0321 36.279 16.9121 34.347 16.7921C33.5169 16.0161 33.0393 14.9349 33.0248 13.7985C33.0102 12.6622 33.46 11.5692 34.27 10.7721H34.272ZM34.196 23.7151L34.486 23.7531C35.7746 23.9524 37.0753 24.063 38.379 24.0841C38.793 24.0841 39.229 24.0511 39.666 24.0171C39.575 25.3041 39.426 26.6481 39.237 28.0371C38.99 28.0241 38.748 28.0001 38.5 28.0001C36.9902 28.0028 35.4918 28.2608 34.068 28.7631C34.0219 27.0794 34.064 25.3944 34.194 23.7151H34.196ZM26.461 35.4091L23.6 23.2221C23.4663 22.6934 22.9335 22.3693 22.4025 22.4937C21.8715 22.6181 21.5381 23.145 21.653 23.6781L24.224 34.6471C23.5171 34.3943 22.7869 34.2124 22.044 34.1041L17.655 15.3741C18.2699 15.6541 18.9374 15.7993 19.613 15.8001C19.676 15.8001 19.743 15.7911 19.807 15.7881L20.514 18.8071C20.5902 19.1605 20.8512 19.4452 21.1966 19.5519C21.542 19.6585 21.918 19.5704 22.1802 19.3215C22.4423 19.0726 22.5497 18.7016 22.461 18.3511L21.753 15.3301C22.4315 15.0298 23.0299 14.5742 23.5 14.0001L27.962 33.0791C27.3826 33.8019 26.8796 34.5827 26.461 35.4091ZM20.351 13.7091C19.0721 13.9572 17.7663 13.4343 17.012 12.3721L17.139 8.85012C17.487 8.91511 17.8401 8.94857 18.194 8.95012C18.5359 8.95155 18.8768 8.91364 19.21 8.83712C19.8846 8.65995 20.5156 8.34614 21.064 7.91512L22.748 11.0231C22.5474 12.3126 21.6092 13.3647 20.351 13.7111V13.7091ZM17.612 2.02712C17.7482 1.99557 17.8888 2.0585 17.956 2.18112L20.1 6.14612C19.7132 6.49601 19.2514 6.75258 18.75 6.89612C18.2375 6.99018 17.7103 6.96521 17.209 6.82312L17.372 2.31712C17.3774 2.17739 17.4758 2.05859 17.612 2.02712ZM10.375 22.0001L11.139 23.8461L7.43901 25.3781C7.00037 25.5623 6.75223 26.0301 6.84567 26.4965C6.93911 26.963 7.34826 27.2991 7.82401 27.3001C7.95539 27.2998 8.08547 27.274 8.20701 27.2241L11.907 25.6911L12.672 27.5391L10.821 28.3061C10.3799 28.4887 10.1293 28.9576 10.2227 29.4258C10.3162 29.894 10.7276 30.2309 11.205 30.2301C11.3361 30.2297 11.4658 30.2038 11.587 30.1541L13.438 29.3871L14.203 31.2351L10.5 32.7701C10.0589 32.9527 9.80829 33.4216 9.90174 33.8898C9.99518 34.358 10.4066 34.6949 10.884 34.6941C11.0151 34.6938 11.1448 34.6679 11.266 34.6181L14.966 33.0861L15.775 35.0391C12.5164 36.5265 10.1269 39.4349 9.30001 42.9201L2.05201 25.4441L10.375 22.0001ZM52 58.0001H8.00001C4.6863 58.0001 2.00001 55.3138 2.00001 52.0001C2.00001 48.6864 4.6863 46.0001 8.00001 46.0001C8.57944 45.9982 9.15598 46.0818 9.71101 46.2481C10.0109 46.3387 10.3358 46.2835 10.589 46.0991C10.8422 45.9147 10.9943 45.6223 11 45.3091C11.0711 41.7452 13.1314 38.521 16.3356 36.9592C19.5399 35.3973 23.3488 35.7606 26.2 37.9001C26.452 38.0876 26.7774 38.1459 27.0787 38.0574C27.3801 37.969 27.6224 37.7441 27.733 37.4501C29.6867 32.2433 35.0864 29.1806 40.5579 30.1757C46.0294 31.1709 50.0048 35.9388 50 41.5001C50.002 42.6438 49.8317 43.7812 49.495 44.8741C49.3899 45.2142 49.4735 45.5844 49.7144 45.8464C49.9554 46.1084 50.3174 46.2225 50.665 46.1461C51.1035 46.0496 51.5511 46.0007 52 46.0001C55.3137 46.0001 58 48.6864 58 52.0001C58 55.3138 55.3137 58.0001 52 58.0001Z" fill="black"/>
<path d="M38.685 15.7C38.9989 15.7012 39.2951 15.555 39.485 15.305C40.7334 13.6153 41.2159 11.4793 40.815 9.41703C40.7297 9.0644 40.4601 8.78563 40.1105 8.68857C39.761 8.59152 39.3862 8.6914 39.1314 8.94958C38.8765 9.20776 38.7814 9.58374 38.883 9.93203C39.1224 11.3975 38.7652 12.8978 37.891 14.098C37.6637 14.401 37.6272 14.8065 37.7966 15.1452C37.966 15.484 38.3122 15.698 38.691 15.698L38.685 15.7Z" fill="black"/>
<path d="M37.37 46.0001C36.6264 46.0024 35.893 46.1733 35.225 46.5001C33.4261 44.0385 30.0671 43.3174 27.4164 44.8237C24.7656 46.33 23.666 49.5848 24.86 52.3901C25.0171 52.7588 25.3792 52.9981 25.78 52.9981C25.9148 52.9984 26.0482 52.9712 26.172 52.9181C26.416 52.8141 26.6087 52.6175 26.7077 52.3715C26.8068 52.1254 26.804 51.8501 26.7 51.6061C26.4823 51.0987 26.37 50.5523 26.37 50.0001C26.37 47.791 28.1609 46.0001 30.37 46.0001C31.9215 45.9924 33.3346 46.8914 33.985 48.3001C34.0066 48.3327 34.03 48.364 34.055 48.3941C34.0708 48.4284 34.0885 48.4618 34.108 48.4941C34.126 48.5161 34.152 48.5261 34.172 48.5471C34.2189 48.5958 34.2709 48.6394 34.327 48.6771C34.377 48.7156 34.4305 48.7491 34.487 48.7771C34.5451 48.8015 34.6054 48.8202 34.667 48.8331C34.7285 48.8492 34.7915 48.859 34.855 48.8621C34.9849 48.8611 35.1138 48.8395 35.237 48.7981C35.2637 48.7932 35.29 48.7868 35.316 48.7791C35.3485 48.7581 35.3795 48.7351 35.409 48.7101C35.445 48.6941 35.4801 48.6761 35.514 48.6561C36.0393 48.2313 36.6945 47.9997 37.37 48.0001C38.5393 48.002 39.6009 48.6831 40.09 49.7451C40.3192 50.2477 40.9124 50.4693 41.415 50.2401C41.9176 50.0109 42.1392 49.4177 41.91 48.9151C41.0957 47.1403 39.3227 46.0019 37.37 46.0001Z" fill="black"/>
<path d="M17.684 39.051C17.533 39.1 14 40.322 14 44C14 44.5523 14.4477 45 15 45C15.5523 45 16 44.5523 16 44C16.0816 42.605 16.9995 41.3982 18.322 40.947C18.8467 40.7708 19.1292 40.2027 18.953 39.678C18.7768 39.1534 18.2087 38.8709 17.684 39.047V39.051Z" fill="black"/>
<path d="M31.757 37.97C31.8364 37.9902 31.9181 38.0002 32 38C32.4583 37.9995 32.8577 37.6876 32.969 37.243C33.4293 35.3757 35.0824 34.0474 37.005 34C37.5573 33.9986 38.0039 33.5498 38.0025 32.9975C38.0011 32.4452 37.5523 31.9986 37 32C34.1577 32.0377 31.7015 33.9949 31.03 36.757C30.8958 37.2927 31.2213 37.8358 31.757 37.97Z" fill="black"/>
</mask>
<g mask="url(#mask0)">
<rect x="0.012146" y="-0.000244141" width="59.9879" height="60.0004" fill="url(#paint0_linear)"/>
</g>
</g>
<defs>
<linearGradient id="paint0_linear" x1="16.307" y1="15.7659" x2="79.0379" y2="84.4149" gradientUnits="userSpaceOnUse">
<stop stop-color="#2EC4B6"/>
<stop offset="1" stop-color="#011627"/>
</linearGradient>
<clipPath id="clip0">
<rect width="60" height="60" fill="white"/>
</clipPath>
</defs>
</svg>
