<svg width="405" height="118" viewBox="0 0 405 118" fill="none" xmlns="http://www.w3.org/2000/svg">
<path d="M94.6978 116.957H67.7238V75.1223H59.0809C56.0216 75.1223 53.6953 78.3338 52.974 79.6408C47.8134 88.9886 36.6682 108.413 34.0847 112.189C31.5013 115.965 27.7376 116.895 25.9329 116.957H0.383423C8.39337 104.03 23.2425 80.8011 25.0661 77.6176C27.4874 73.39 32.4645 69.9844 33.9842 69.7684C28.5684 68.2296 20.9235 62.7599 19.3831 60.7604C17.8267 58.7401 6.30558 47.7936 12.5397 27.0613C18.7955 6.25658 42.006 4.90854 46.392 4.65451C55.6079 4.12074 73.1231 4.12074 80.5124 4.12074C88.34 4.12074 89.8243 7.75028 90.6098 11.5216C91.3666 20.6522 92.6179 21.276 92.6179 21.276C102.116 3.96842 114.765 2.25674 119.039 2.16419C122.459 2.09014 128.626 2.70711 132.999 5.50069L131.17 30.5112C129.457 36.1249 122.527 34.3059 122.527 34.3059C102.848 30.8259 95.7743 42.3581 94.6978 48.5592V116.957Z" fill="#1E1E1E"/>
<path d="M151.299 27.525C151.299 30.175 151.724 32.65 152.574 34.95C153.424 37.2 154.624 39.175 156.174 40.875C157.724 42.525 159.549 43.85 161.649 44.85C163.799 45.8 166.149 46.275 168.699 46.275C171.249 46.275 173.574 45.8 175.674 44.85C177.824 43.9 179.674 42.6 181.224 40.95C182.774 39.3 183.974 37.325 184.824 35.025C185.674 32.725 186.099 30.225 186.099 27.525H194.649C194.649 31.225 193.999 34.7 192.699 37.95C191.399 41.2 189.574 44.025 187.224 46.425C184.924 48.825 182.174 50.725 178.974 52.125C175.824 53.525 172.399 54.225 168.699 54.225C164.999 54.225 161.549 53.525 158.349 52.125C155.199 50.725 152.449 48.825 150.099 46.425C147.799 44.025 145.999 41.2 144.699 37.95C143.399 34.7 142.749 31.225 142.749 27.525C142.749 23.825 143.399 20.35 144.699 17.1C145.999 13.85 147.799 11.025 150.099 8.625C152.449 6.225 155.199 4.325 158.349 2.925C161.549 1.525 164.999 0.825001 168.699 0.825001C172.949 0.825001 176.724 1.7 180.024 3.45C183.374 5.2 186.249 7.525 188.649 10.425L182.799 16.275C181.199 13.975 179.249 12.15 176.949 10.8C174.649 9.45 171.899 8.775 168.699 8.775C166.149 8.775 163.799 9.275 161.649 10.275C159.549 11.225 157.724 12.55 156.174 14.25C154.624 15.9 153.424 17.875 152.574 20.175C151.724 22.475 151.299 24.925 151.299 27.525Z" fill="#1E1E1E"/>
<path d="M237.526 16.275V53.775H229.126V49.875C228.326 50.875 226.951 51.85 225.001 52.8C223.101 53.75 220.901 54.225 218.401 54.225C215.701 54.225 213.201 53.75 210.901 52.8C208.651 51.85 206.676 50.525 204.976 48.825C203.276 47.125 201.951 45.1 201.001 42.75C200.051 40.4 199.576 37.825 199.576 35.025C199.576 32.225 200.051 29.65 201.001 27.3C201.951 24.95 203.276 22.925 204.976 21.225C206.676 19.525 208.651 18.2 210.901 17.25C213.201 16.3 215.701 15.825 218.401 15.825C219.651 15.825 220.826 15.975 221.926 16.275C223.076 16.525 224.101 16.85 225.001 17.25C225.951 17.65 226.776 18.125 227.476 18.675C228.176 19.175 228.726 19.675 229.126 20.175V16.275H237.526ZM229.426 35.025C229.426 33.475 229.151 32.025 228.601 30.675C228.051 29.325 227.301 28.15 226.351 27.15C225.401 26.1 224.251 25.275 222.901 24.675C221.601 24.075 220.201 23.775 218.701 23.775C217.151 23.775 215.701 24.075 214.351 24.675C213.001 25.275 211.826 26.1 210.826 27.15C209.876 28.15 209.101 29.325 208.501 30.675C207.951 32.025 207.676 33.475 207.676 35.025C207.676 36.575 207.951 38.025 208.501 39.375C209.101 40.725 209.876 41.925 210.826 42.975C211.826 43.975 213.001 44.775 214.351 45.375C215.701 45.975 217.151 46.275 218.701 46.275C220.201 46.275 221.601 45.975 222.901 45.375C224.251 44.775 225.401 43.975 226.351 42.975C227.301 41.925 228.051 40.725 228.601 39.375C229.151 38.025 229.426 36.575 229.426 35.025Z" fill="#1E1E1E"/>
<path d="M246.587 16.275H254.837V20.175C255.737 18.975 256.912 17.95 258.362 17.1C259.812 16.25 261.862 15.825 264.512 15.825V23.775H263.762C261.112 23.775 258.962 24.625 257.312 26.325C255.662 28.025 254.837 30.275 254.837 33.075V53.775H246.587V16.275Z" fill="#1E1E1E"/>
<path d="M272.295 1.275L280.545 0.375V53.775H272.295V1.275Z" fill="#1E1E1E"/>
<path d="M288.418 35.025C288.418 32.275 288.893 29.75 289.843 27.45C290.793 25.1 292.118 23.075 293.818 21.375C295.568 19.625 297.593 18.275 299.893 17.325C302.243 16.325 304.818 15.825 307.618 15.825C310.368 15.825 312.918 16.325 315.268 17.325C317.618 18.275 319.643 19.625 321.343 21.375C323.093 23.075 324.443 25.1 325.393 27.45C326.343 29.75 326.818 32.275 326.818 35.025C326.818 37.775 326.343 40.325 325.393 42.675C324.443 44.975 323.093 47 321.343 48.75C319.643 50.45 317.618 51.8 315.268 52.8C312.918 53.75 310.368 54.225 307.618 54.225C304.818 54.225 302.243 53.75 299.893 52.8C297.593 51.8 295.568 50.45 293.818 48.75C292.118 47 290.793 44.975 289.843 42.675C288.893 40.325 288.418 37.775 288.418 35.025ZM296.818 35.025C296.818 36.675 297.068 38.2 297.568 39.6C298.118 40.95 298.868 42.125 299.818 43.125C300.768 44.125 301.893 44.9 303.193 45.45C304.543 46 306.018 46.275 307.618 46.275C309.218 46.275 310.668 46 311.968 45.45C313.318 44.9 314.468 44.125 315.418 43.125C316.368 42.125 317.093 40.95 317.593 39.6C318.143 38.2 318.418 36.675 318.418 35.025C318.418 33.375 318.143 31.875 317.593 30.525C317.093 29.125 316.368 27.925 315.418 26.925C314.468 25.925 313.318 25.15 311.968 24.6C310.668 24.05 309.218 23.775 307.618 23.775C306.018 23.775 304.543 24.05 303.193 24.6C301.893 25.15 300.768 25.925 299.818 26.925C298.868 27.925 298.118 29.125 297.568 30.525C297.068 31.875 296.818 33.375 296.818 35.025Z" fill="#1E1E1E"/>
<path d="M160.974 64.275C163.074 64.275 165.024 64.625 166.824 65.325C168.674 65.975 170.274 66.95 171.624 68.25C172.974 69.5 174.049 71.05 174.849 72.9C175.649 74.75 176.049 76.875 176.049 79.275C176.049 81.375 175.724 83.275 175.074 84.975C174.424 86.625 173.549 88.075 172.449 89.325C171.399 90.525 170.149 91.525 168.699 92.325C167.249 93.125 165.724 93.675 164.124 93.975L176.049 116.775H166.449L155.199 94.275H153.999V116.775H145.599V64.275H160.974ZM153.999 86.325H161.049C163.299 86.325 164.974 85.675 166.074 84.375C167.224 83.025 167.799 81.325 167.799 79.275C167.799 77.225 167.224 75.55 166.074 74.25C164.974 72.9 163.299 72.225 161.049 72.225H153.999V86.325Z" fill="#1E1E1E"/>
<path d="M179.8 98.025C179.8 95.275 180.275 92.75 181.225 90.45C182.175 88.1 183.5 86.075 185.2 84.375C186.95 82.625 188.975 81.275 191.275 80.325C193.625 79.325 196.2 78.825 199 78.825C201.75 78.825 204.3 79.325 206.65 80.325C209 81.275 211.025 82.625 212.725 84.375C214.475 86.075 215.825 88.1 216.775 90.45C217.725 92.75 218.2 95.275 218.2 98.025C218.2 100.775 217.725 103.325 216.775 105.675C215.825 107.975 214.475 110 212.725 111.75C211.025 113.45 209 114.8 206.65 115.8C204.3 116.75 201.75 117.225 199 117.225C196.2 117.225 193.625 116.75 191.275 115.8C188.975 114.8 186.95 113.45 185.2 111.75C183.5 110 182.175 107.975 181.225 105.675C180.275 103.325 179.8 100.775 179.8 98.025ZM188.2 98.025C188.2 99.675 188.45 101.2 188.95 102.6C189.5 103.95 190.25 105.125 191.2 106.125C192.15 107.125 193.275 107.9 194.575 108.45C195.925 109 197.4 109.275 199 109.275C200.6 109.275 202.05 109 203.35 108.45C204.7 107.9 205.85 107.125 206.8 106.125C207.75 105.125 208.475 103.95 208.975 102.6C209.525 101.2 209.8 99.675 209.8 98.025C209.8 96.375 209.525 94.875 208.975 93.525C208.475 92.125 207.75 90.925 206.8 89.925C205.85 88.925 204.7 88.15 203.35 87.6C202.05 87.05 200.6 86.775 199 86.775C197.4 86.775 195.925 87.05 194.575 87.6C193.275 88.15 192.15 88.925 191.2 89.925C190.25 90.925 189.5 92.125 188.95 93.525C188.45 94.875 188.2 96.375 188.2 98.025Z" fill="#1E1E1E"/>
<path d="M226.592 79.275H234.842V83.55C235.692 82.4 236.967 81.325 238.667 80.325C240.367 79.325 242.517 78.825 245.117 78.825C249.817 78.825 253.392 80.15 255.842 82.8C258.292 85.45 259.517 89.275 259.517 94.275V116.775H251.267V96.075C251.267 92.775 250.567 90.375 249.167 88.875C247.817 87.375 245.792 86.625 243.092 86.625C240.392 86.625 238.342 87.5 236.942 89.25C235.542 91 234.842 93.275 234.842 96.075V116.775H226.592V79.275Z" fill="#1E1E1E"/>
<path d="M275.212 98.025C275.212 101.425 276.187 104.175 278.137 106.275C280.137 108.375 282.762 109.425 286.012 109.425C287.612 109.425 289.062 109.15 290.362 108.6C291.712 108.05 292.862 107.275 293.812 106.275C294.812 105.275 295.562 104.075 296.062 102.675C296.612 101.275 296.887 99.725 296.887 98.025H305.137C305.137 100.775 304.637 103.325 303.637 105.675C302.687 107.975 301.362 110 299.662 111.75C297.962 113.45 295.937 114.8 293.587 115.8C291.237 116.75 288.712 117.225 286.012 117.225C283.262 117.225 280.712 116.75 278.362 115.8C276.012 114.8 273.987 113.45 272.287 111.75C270.587 110.05 269.237 108.025 268.237 105.675C267.287 103.325 266.812 100.775 266.812 98.025C266.812 95.275 267.287 92.725 268.237 90.375C269.237 88.025 270.587 86 272.287 84.3C273.987 82.6 276.012 81.275 278.362 80.325C280.712 79.325 283.262 78.825 286.012 78.825C288.962 78.825 291.537 79.35 293.737 80.4C295.987 81.4 297.987 82.775 299.737 84.525L293.662 90C292.712 89 291.612 88.2 290.362 87.6C289.112 86.95 287.662 86.625 286.012 86.625C282.762 86.625 280.137 87.675 278.137 89.775C276.187 91.875 275.212 94.625 275.212 98.025Z" fill="#1E1E1E"/>
<path d="M311.7 64.275L319.95 63.375V83.55C321.1 82.2 322.55 81.075 324.3 80.175C326.1 79.275 328.225 78.825 330.675 78.825C335.175 78.825 338.7 80.15 341.25 82.8C343.8 85.45 345.075 89.275 345.075 94.275V116.775H336.825V96.075C336.825 93.125 336.175 90.825 334.875 89.175C333.575 87.475 331.5 86.625 328.65 86.625C325.95 86.625 323.825 87.525 322.275 89.325C320.725 91.075 319.95 93.325 319.95 96.075V116.775H311.7V64.275Z" fill="#1E1E1E"/>
<path d="M353.887 79.275H362.137V116.775H353.887V79.275ZM352.462 69.45C352.462 67.85 352.987 66.525 354.037 65.475C355.137 64.375 356.462 63.825 358.012 63.825C359.562 63.825 360.862 64.375 361.912 65.475C363.012 66.525 363.562 67.85 363.562 69.45C363.562 71.05 363.012 72.4 361.912 73.5C360.862 74.55 359.562 75.075 358.012 75.075C356.462 75.075 355.137 74.55 354.037 73.5C352.987 72.4 352.462 71.05 352.462 69.45Z" fill="#1E1E1E"/>
<path d="M371.099 79.275H379.349V83.55C380.199 82.4 381.474 81.325 383.174 80.325C384.874 79.325 387.024 78.825 389.624 78.825C394.324 78.825 397.899 80.15 400.349 82.8C402.799 85.45 404.024 89.275 404.024 94.275V116.775H395.774V96.075C395.774 92.775 395.074 90.375 393.674 88.875C392.324 87.375 390.299 86.625 387.599 86.625C384.899 86.625 382.849 87.5 381.449 89.25C380.049 91 379.349 93.275 379.349 96.075V116.775H371.099V79.275Z" fill="#1E1E1E"/>
</svg>
