<svg width="41" height="41" viewBox="0 0 41 41" fill="none" xmlns="http://www.w3.org/2000/svg">
<g clip-path="url(#clip0)">
<path d="M24.7031 20.6776C24.7031 22.7919 22.9893 24.5057 20.875 24.5057C18.7607 24.5057 17.0469 22.7919 17.0469 20.6776C17.0469 18.5634 18.7607 16.8495 20.875 16.8495C22.9893 16.8495 24.7031 18.5634 24.7031 20.6776Z" fill="black"/>
<path d="M29.8276 13.9046C29.6436 13.4059 29.35 12.9546 28.9686 12.5841C28.5981 12.2026 28.147 11.9091 27.6481 11.725C27.2434 11.5679 26.6355 11.3808 25.5158 11.3298C24.3046 11.2746 23.9414 11.2627 20.875 11.2627C17.8083 11.2627 17.4451 11.2743 16.2342 11.3295C15.1145 11.3808 14.5063 11.5679 14.1019 11.725C13.603 11.9091 13.1516 12.2026 12.7814 12.5841C12.4 12.9546 12.1064 13.4056 11.9221 13.9046C11.7649 14.3093 11.5778 14.9175 11.5269 16.0372C11.4716 17.2481 11.4597 17.6113 11.4597 20.678C11.4597 23.7444 11.4716 24.1075 11.5269 25.3188C11.5778 26.4385 11.7649 27.0464 11.9221 27.451C12.1064 27.95 12.3997 28.4011 12.7811 28.7715C13.1516 29.153 13.6027 29.4466 14.1016 29.6306C14.5063 29.7881 15.1145 29.9752 16.2342 30.0261C17.4451 30.0814 17.808 30.093 20.8747 30.093C23.9417 30.093 24.3049 30.0814 25.5155 30.0261C26.6352 29.9752 27.2434 29.7881 27.6481 29.6306C28.6497 29.2443 29.4413 28.4526 29.8276 27.451C29.9848 27.0464 30.1719 26.4385 30.2231 25.3188C30.2784 24.1075 30.29 23.7444 30.29 20.678C30.29 17.6113 30.2784 17.2481 30.2231 16.0372C30.1722 14.9175 29.9851 14.3093 29.8276 13.9046V13.9046ZM20.875 26.5749C17.6179 26.5749 14.9775 23.9348 14.9775 20.6777C14.9775 17.4205 17.6179 14.7805 20.875 14.7805C24.1318 14.7805 26.7722 17.4205 26.7722 20.6777C26.7722 23.9348 24.1318 26.5749 20.875 26.5749ZM27.0054 15.9255C26.2443 15.9255 25.6272 15.3084 25.6272 14.5473C25.6272 13.7862 26.2443 13.1691 27.0054 13.1691C27.7665 13.1691 28.3835 13.7862 28.3835 14.5473C28.3832 15.3084 27.7665 15.9255 27.0054 15.9255Z" fill="black"/>
<path d="M20.875 0.677612C9.83099 0.677612 0.875 9.63361 0.875 20.6776C0.875 31.7216 9.83099 40.6776 20.875 40.6776C31.919 40.6776 40.875 31.7216 40.875 20.6776C40.875 9.63361 31.919 0.677612 20.875 0.677612ZM32.2901 25.4124C32.2346 26.6349 32.0402 27.4696 31.7563 28.2002C31.1597 29.7429 29.9402 30.9623 28.3976 31.559C27.6673 31.8428 26.8323 32.0369 25.6101 32.0927C24.3854 32.1486 23.9942 32.162 20.8753 32.162C17.7561 32.162 17.3652 32.1486 16.1402 32.0927C14.918 32.0369 14.083 31.8428 13.3527 31.559C12.5861 31.2706 11.8922 30.8186 11.3184 30.2342C10.7343 29.6608 10.2823 28.9665 9.99396 28.2002C9.71014 27.4699 9.51575 26.6349 9.46021 25.4127C9.40375 24.1877 9.39062 23.7965 9.39062 20.6776C9.39062 17.5587 9.40375 17.1675 9.4599 15.9428C9.51544 14.7203 9.70953 13.8856 9.99335 13.155C10.2817 12.3887 10.734 11.6945 11.3184 11.121C11.8918 10.5366 12.5861 10.0847 13.3524 9.79626C14.083 9.51245 14.9177 9.31836 16.1402 9.26251C17.3649 9.20667 17.7561 9.19324 20.875 9.19324C23.9939 9.19324 24.3851 9.20667 25.6098 9.26282C26.8323 9.31836 27.667 9.51245 28.3976 9.79596C29.1639 10.0844 29.8582 10.5366 30.4319 11.121C31.016 11.6948 31.4683 12.3887 31.7563 13.155C32.0405 13.8856 32.2346 14.7203 32.2904 15.9428C32.3463 17.1675 32.3594 17.5587 32.3594 20.6776C32.3594 23.7965 32.3463 24.1877 32.2901 25.4124V25.4124Z" fill="black"/>
</g>
<defs>
<clipPath id="clip0">
<rect x="0.875" y="0.677612" width="40" height="40" fill="white"/>
</clipPath>
</defs>
</svg>
