<svg width="40" height="41" viewBox="0 0 40 41" fill="none" xmlns="http://www.w3.org/2000/svg">
<g clip-path="url(#clip0)">
<path d="M20 0.585083C8.95599 0.585083 0 9.54108 0 20.5851C0 31.6291 8.95599 40.5851 20 40.5851C31.044 40.5851 40 31.6291 40 20.5851C40 9.54108 31.044 0.585083 20 0.585083ZM14.1882 30.8195H9.31732V16.1652H14.1882V30.8195ZM11.7529 14.1642H11.7212C10.0867 14.1642 9.02954 13.039 9.02954 11.6328C9.02954 10.1948 10.119 9.10071 11.7853 9.10071C13.4515 9.10071 14.4769 10.1948 14.5087 11.6328C14.5087 13.039 13.4515 14.1642 11.7529 14.1642ZM31.7517 30.8195H26.8814V22.9798C26.8814 21.0096 26.1761 19.6659 24.4138 19.6659C23.0682 19.6659 22.2668 20.5723 21.9147 21.4472C21.7859 21.7603 21.7545 22.1979 21.7545 22.6359V30.8195H16.8839C16.8839 30.8195 16.9476 17.54 16.8839 16.1652H21.7545V18.2401C22.4017 17.2416 23.5599 15.8213 26.1441 15.8213C29.3488 15.8213 31.7517 17.9157 31.7517 22.4167V30.8195Z" fill="black"/>
</g>
<defs>
<clipPath id="clip0">
<rect y="0.585083" width="40" height="40" fill="white"/>
</clipPath>
</defs>
</svg>
