<svg width="47" height="42" viewBox="0 0 47 42" fill="none" xmlns="http://www.w3.org/2000/svg">
<g clip-path="url(#clip0)">
<path d="M33.4647 41.6859H23.9325V26.771H20.8782C19.7971 26.771 18.9751 27.916 18.7202 28.3819C16.8965 31.7147 12.958 38.6398 12.045 39.986C11.1321 41.3323 9.80203 41.6638 9.16431 41.6859H0.135529C2.96611 37.0772 8.21356 28.7956 8.85799 27.6606C9.71361 26.1534 11.4725 24.9392 12.0095 24.8622C10.0956 24.3136 7.39406 22.3635 6.8497 21.6507C6.29969 20.9304 2.22832 17.0277 4.43134 9.63622C6.64206 2.21889 14.8442 1.73828 16.3942 1.64771C19.6509 1.45741 25.8405 1.45741 28.4518 1.45741C31.2179 1.45741 31.7424 2.75142 32.02 4.09597C32.2875 7.35122 32.7297 7.57362 32.7297 7.57362C36.0861 1.40311 40.5562 0.792856 42.0666 0.759859C43.2749 0.733461 45.4543 0.953422 46.9996 1.94939L46.3535 10.8662C45.748 12.8676 43.2992 12.2191 43.2992 12.2191C36.3447 10.9784 33.8451 15.0899 33.4647 17.3007V41.6859Z" fill="white"/>
</g>
<defs>
<clipPath id="clip0">
<rect y="0.701294" width="47" height="41" fill="white"/>
</clipPath>
</defs>
</svg>
