<svg width="235" height="235" viewBox="0 0 235 235" fill="none" xmlns="http://www.w3.org/2000/svg">
<path d="M145.414 158.205C142.892 158.205 140.844 160.253 140.844 162.776C140.844 165.298 142.892 167.346 145.414 167.346C147.937 167.346 149.985 165.298 149.985 162.776C149.985 160.253 147.937 158.205 145.414 158.205Z" fill="#2EC4B6"/>
<path d="M212.141 0.0725098H23.844C11.2435 0.0725098 0.992432 10.3236 0.992432 22.9241V162.776C0.992432 175.376 11.2435 185.627 23.844 185.627H95.1409V206.651H90.5706C84.4685 206.651 78.7324 209.029 74.4138 213.345C70.097 217.664 67.719 223.4 67.719 229.502C67.719 232.027 69.7649 234.073 72.2893 234.073H163.696C166.22 234.073 168.266 232.027 168.266 229.502C168.266 216.902 158.015 206.651 145.414 206.651H140.844V185.627H212.141C224.741 185.627 234.992 175.376 234.992 162.776V22.9241C234.992 10.3236 224.741 0.0725098 212.141 0.0725098ZM23.844 9.21313H212.141C219.702 9.21313 225.852 15.3634 225.852 22.9241V139.924H204.828V34.8069C204.828 32.2825 202.782 30.2366 200.258 30.2366H163.696C161.171 30.2366 159.125 32.2825 159.125 34.8069V139.924H136.249C136.2 135.197 136.077 130.537 135.881 126.017C135.081 107.403 133.258 94.9351 132.31 89.4507C141.74 82.5077 144.315 69.6395 138.55 59.6419L122.709 32.2057C121.891 30.7918 120.383 29.9206 118.751 29.9206C117.118 29.9206 115.609 30.7918 114.793 32.2057L98.9453 59.6437C93.5109 69.0699 95.4372 81.2795 103.974 88.4848C102.985 93.9532 100.989 106.868 100.122 126.008C99.9165 130.576 99.7862 135.24 99.7362 139.924H76.8596V71.3694C76.8596 70.6446 76.6882 69.984 76.4079 69.3967C76.3954 69.3734 76.3883 69.3484 76.3776 69.3252L58.0963 32.7627C57.3215 31.2149 55.7398 30.2366 54.0081 30.2366C52.2763 30.2366 50.6946 31.2149 49.9198 32.7627L31.6385 69.3252C31.6278 69.3484 31.6207 69.3734 31.61 69.3967C31.3243 69.9894 31.1565 70.6606 31.1565 71.3694V139.924H10.1331V22.9241C10.1331 15.3634 16.2833 9.21313 23.844 9.21313ZM168.266 139.924V39.3772H195.688V48.5178H191.117C188.593 48.5178 186.547 50.5638 186.547 53.0881C186.547 55.6125 188.593 57.6584 191.117 57.6584H195.688V71.3694H191.117C188.593 71.3694 186.547 73.4153 186.547 75.9397C186.547 78.4641 188.593 80.51 191.117 80.51H195.688V94.2209H191.117C188.593 94.2209 186.547 96.2669 186.547 98.7913C186.547 101.316 188.593 103.362 191.117 103.362H195.688V121.643H191.117C188.593 121.643 186.547 123.689 186.547 126.213C186.547 128.738 188.593 130.783 191.117 130.783H195.688V139.924H168.266ZM118.751 93.905C120.411 93.905 122.065 93.7139 123.682 93.3569C124.53 98.793 125.776 108.412 126.514 121.643H109.502C110.275 108.421 111.58 98.652 112.481 93.032C114.506 93.6086 116.614 93.905 118.751 93.905ZM118.751 84.7643C108.306 84.7643 101.57 73.3957 106.863 64.2122L118.751 43.6315L130.632 64.2104C135.906 73.3564 129.263 84.7643 118.751 84.7643ZM109.082 130.783H126.915C127.012 133.786 127.078 136.841 127.11 139.924H108.877C108.911 136.861 108.98 133.806 109.082 130.783ZM58.5784 139.924V75.9397H67.719V139.924H58.5784ZM40.2971 139.924V75.9397H49.4377V139.924H40.2971ZM43.1214 66.7991L54.0081 45.0258L64.8947 66.7991H43.1214ZM158.342 224.932H77.638C78.3093 223.027 79.4054 221.281 80.8765 219.808C83.4687 217.218 86.9107 215.791 90.5706 215.791H145.414C151.374 215.791 156.456 219.612 158.342 224.932ZM131.703 206.651H104.281V185.627H131.703V206.651ZM212.141 176.487H23.844C16.2833 176.487 10.1331 170.336 10.1331 162.776V149.065H225.852V162.776C225.852 170.336 219.702 176.487 212.141 176.487Z" fill="#011627"/>
<path d="M127.133 158.205H99.7112C97.1868 158.205 95.1409 160.251 95.1409 162.776C95.1409 165.3 97.1868 167.346 99.7112 167.346H127.133C129.657 167.346 131.703 165.3 131.703 162.776C131.703 160.251 129.657 158.205 127.133 158.205Z" fill="#2EC4B6"/>
</svg>
