<svg width="235" height="235" viewBox="0 0 235 235" fill="none" xmlns="http://www.w3.org/2000/svg">
<path d="M110.944 167.339C109.742 167.339 108.562 167.828 107.712 168.678C106.863 169.528 106.373 170.703 106.373 171.909C106.373 173.111 106.862 174.291 107.712 175.14C108.562 175.99 109.742 176.48 110.944 176.48C112.146 176.48 113.325 175.991 114.175 175.14C115.024 174.286 115.514 173.111 115.514 171.909C115.514 170.702 115.025 169.528 114.175 168.678C113.325 167.828 112.146 167.339 110.944 167.339Z" fill="#2EC4B6"/>
<path d="M198.163 153.688C196.957 153.688 195.778 154.176 194.928 155.027C194.078 155.877 193.593 157.051 193.593 158.258C193.593 159.46 194.078 160.639 194.928 161.489C195.778 162.339 196.957 162.828 198.163 162.828C199.365 162.828 200.54 162.339 201.395 161.489C202.245 160.634 202.734 159.46 202.734 158.258C202.734 157.056 202.245 155.877 201.395 155.027C200.54 154.176 199.365 153.688 198.163 153.688Z" fill="#2EC4B6"/>
<path d="M62.9594 131.695C61.7574 131.695 60.5782 132.184 59.7286 133.034C58.8785 133.884 58.389 135.064 58.389 136.266C58.389 137.468 58.8781 138.647 59.7286 139.496C60.5782 140.346 61.7574 140.836 62.9594 140.836C64.1613 140.836 65.3405 140.347 66.1906 139.496C67.0406 138.647 67.5297 137.468 67.5297 136.266C67.5297 135.064 67.0411 133.884 66.1906 133.034C65.34 132.184 64.1613 131.695 62.9594 131.695Z" fill="#2EC4B6"/>
<path d="M234.831 50.1321C234.831 47.608 232.784 45.5618 230.26 45.5618H223.222C222.261 42.3521 220.98 39.2562 219.39 36.3047L224.366 31.329C226.15 29.5443 226.15 26.6503 224.366 24.8656L210.493 10.9934C208.708 9.20865 205.815 9.20865 204.029 10.9934L199.054 15.9686C196.102 14.379 193.007 13.0975 189.797 12.1359V5.09766C189.797 2.57393 187.75 0.527344 185.226 0.527344H165.607C163.084 0.527344 161.037 2.57347 161.037 5.09766V12.1528C157.834 13.1163 154.745 14.3987 151.799 15.9878L146.805 10.9929C145.019 9.2082 142.126 9.2082 140.341 10.9929L126.468 24.8656C125.38 25.9538 124.959 27.4533 125.198 28.8628H19.1274C9.03888 28.8633 0.831055 37.0711 0.831055 47.1601V173.27C0.831055 183.359 9.03888 191.566 19.1274 191.566H91.7474V207.105H80.7951C71.7139 207.105 64.3255 214.494 64.3255 223.575V229.957C64.3255 232.481 66.3721 234.527 68.8958 234.527H152.99C155.513 234.527 157.56 232.481 157.56 229.957V223.575C157.56 214.494 150.172 207.105 141.091 207.105H130.138V191.566H202.716C212.805 191.566 221.013 183.359 221.013 173.27V98.369L224.366 95.0167C225.222 94.1598 225.704 92.9971 225.704 91.7851C225.704 90.573 225.222 89.4103 224.366 88.5534L219.371 83.559C220.96 80.6134 222.242 77.5248 223.206 74.3214H230.261C231.473 74.3214 232.636 73.8397 233.493 72.9828C234.35 72.1259 234.832 70.9632 234.832 69.7511L234.831 50.1321ZM148.419 223.575V225.387H73.4661V223.575C73.4661 219.534 76.7536 216.246 80.7951 216.246H141.091C145.131 216.246 148.419 219.534 148.419 223.575ZM120.997 207.105H100.888V191.566H120.997V207.105ZM211.873 173.27C211.873 178.318 207.765 182.426 202.716 182.426H19.1274C14.0791 182.426 9.97168 178.318 9.97168 173.27V162.827H179.883C182.406 162.827 184.453 160.78 184.453 158.257C184.453 155.733 182.406 153.686 179.883 153.686H9.97168V140.836H44.8583C47.382 140.836 49.4286 138.789 49.4286 136.266C49.4286 133.742 47.382 131.695 44.8583 131.695H9.97168V47.1601C9.97168 42.1112 14.0791 38.0039 19.1274 38.0039H130.632C129.44 40.4385 128.447 42.9622 127.668 45.5618H120.574C119.362 45.5618 118.199 46.0435 117.342 46.9005C116.485 47.7574 116.003 48.9201 116.003 50.1321V69.7507C116.003 72.2748 118.05 74.321 120.574 74.321H127.685C128.645 77.5106 129.921 80.5869 131.501 83.5215L126.469 88.5538C124.684 90.3386 124.684 93.2325 126.469 95.0172L140.342 108.889C142.127 110.674 145.02 110.674 146.805 108.889L151.837 103.858C154.772 105.438 157.849 106.714 161.038 107.673L161.037 114.785C161.037 117.309 163.084 119.355 165.608 119.355H185.227C187.75 119.355 189.797 117.309 189.797 114.785V107.69C192.993 106.733 196.076 105.458 199.017 103.877L204.029 108.889C204.887 109.746 206.049 110.228 207.261 110.228C208.473 110.228 209.635 109.746 210.493 108.889L211.873 107.51V173.27ZM225.69 65.1804H219.677C217.534 65.1804 215.679 66.6698 215.215 68.7626C214.185 73.4119 212.361 77.8068 209.793 81.8236C208.635 83.6284 208.888 86.0027 210.409 87.5237L214.671 91.7855L207.261 99.1944L202.987 94.9198C201.595 93.5291 199.469 93.1836 197.709 94.0634C197.568 94.1337 197.43 94.2119 197.297 94.2964C193.281 96.8554 188.889 98.6707 184.244 99.6935C182.149 100.155 180.656 102.011 180.656 104.157V110.215H170.178V104.145C170.178 102.002 168.688 100.146 166.595 99.6826C161.957 98.6556 157.572 96.8366 153.561 94.2768C152.827 93.8079 151.973 93.5588 151.102 93.5588C149.89 93.5588 148.726 94.041 147.869 94.8979L143.573 99.1944L136.164 91.7851L140.46 87.489C141.981 85.968 142.233 83.5941 141.077 81.7893C138.519 77.7807 136.702 73.3982 135.676 68.7626C135.212 66.6698 133.357 65.1804 131.213 65.1804H125.144V54.7025H131.201C133.346 54.7025 135.203 53.2098 135.665 51.1143C136.686 46.4741 138.499 42.0866 141.055 38.0715C142.211 36.2672 141.96 33.8929 140.439 32.3724L136.164 28.0973L143.573 20.6884L147.834 24.9497C149.401 26.5164 151.824 26.707 153.599 25.5247C157.598 22.9781 161.97 21.1678 166.595 20.144C168.688 19.6806 170.178 17.8251 170.178 15.682V9.66797H180.656V15.6688C180.656 17.8141 182.149 19.671 184.245 20.1322C188.902 21.1577 193.305 22.9799 197.329 25.5489C197.463 25.6348 197.602 25.713 197.744 25.7843C199.503 26.6636 201.631 26.319 203.022 24.9278L207.261 20.6879L214.67 28.0973L210.431 32.3367C210.218 32.5497 210.027 32.7828 209.86 33.0332C208.851 34.546 208.837 36.5112 209.815 38.0373C212.381 42.0596 214.202 46.459 215.226 51.1134C215.687 53.2089 217.543 54.7015 219.69 54.7015H225.691L225.69 65.1804Z" fill="#011627"/>
<path d="M175.417 31.6055C159.792 31.6055 147.081 44.3169 147.081 59.9414C147.081 75.5659 159.792 88.2773 175.417 88.2773C191.042 88.2773 203.753 75.5659 203.753 59.9414C203.753 44.3169 191.042 31.6055 175.417 31.6055ZM175.417 79.1367C164.833 79.1367 156.222 70.5258 156.222 59.9414C156.222 49.357 164.833 40.7461 175.417 40.7461C186.001 40.7461 194.612 49.357 194.612 59.9414C194.612 70.5258 186.001 79.1367 175.417 79.1367Z" fill="#2EC4B6"/>
<path d="M75.6315 82.6787C73.5223 82.6787 71.4706 83.5332 69.9851 85.0187C68.4916 86.504 67.6451 88.5646 67.6451 90.6731C67.6451 92.7733 68.4916 94.8339 69.9851 96.3194C71.4706 97.8047 73.523 98.6514 75.6315 98.6514C77.7319 98.6514 79.7923 97.8047 81.2778 96.3194C82.7624 94.8339 83.6178 92.7733 83.6178 90.6731C83.6178 88.5646 82.7633 86.504 81.2778 85.0187C79.7923 83.5332 77.7319 82.6787 75.6315 82.6787Z" fill="#2EC4B6"/>
<path d="M111.304 82.7116C111.618 81.5407 111.454 80.2935 110.848 79.2437L103.131 65.8782C101.869 63.6927 99.0735 62.9432 96.8875 64.2055L92.4918 66.7434C91.048 65.7224 89.5206 64.839 87.9187 64.099V59.0273C87.9187 56.5032 85.8722 54.457 83.3484 54.457H67.9149C65.3912 54.457 63.3446 56.5032 63.3446 59.0273V64.099C61.7427 64.8394 60.2153 65.7224 58.7716 66.7434L54.3759 64.2055C53.326 63.5995 52.0784 63.4359 50.9079 63.7489C49.7365 64.0629 48.7388 64.8284 48.1328 65.8782L40.4163 79.2437C39.154 81.4296 39.903 84.2244 42.089 85.4867L46.4866 88.026C46.408 88.9026 46.3682 89.7842 46.3682 90.6649C46.3682 91.5456 46.408 92.4272 46.4866 93.3038L42.089 95.843C39.903 97.1049 39.154 99.9001 40.4163 102.086L48.1328 115.452C48.7388 116.501 49.737 117.267 50.9079 117.581C52.0784 117.894 53.326 117.731 54.3759 117.124L58.7716 114.586C60.2153 115.607 61.7427 116.491 63.3446 117.231V122.302C63.3446 124.826 65.3912 126.873 67.9149 126.873H83.3484C85.8722 126.873 87.9187 124.826 87.9187 122.302V117.231C89.5206 116.49 91.048 115.607 92.4918 114.586L96.8875 117.124C99.074 118.386 101.868 117.637 103.131 115.452L110.848 102.086C111.454 101.036 111.618 99.7891 111.304 98.6181C110.99 97.4472 110.225 96.4491 109.175 95.843L104.777 93.3047C104.856 92.4276 104.896 91.546 104.896 90.6658C104.896 89.7855 104.856 88.9039 104.777 88.0264L109.175 85.4872C110.224 84.8807 110.99 83.8825 111.304 82.7116ZM95.3327 86.5466C95.6124 87.8948 95.7546 89.2805 95.7546 90.6653C95.7546 92.0501 95.6124 93.4359 95.3327 94.7841C94.9319 96.7151 95.8149 98.6853 97.5223 99.6711L100.646 101.475L97.4995 106.924L94.3707 105.118C92.6618 104.131 90.511 104.353 89.0389 105.67C86.9549 107.533 84.56 108.918 81.9207 109.786C80.045 110.402 78.7777 112.153 78.7777 114.127V117.733H72.4848V114.127C72.4848 112.153 71.2175 110.402 69.3418 109.786C66.7024 108.918 64.3071 107.533 62.2235 105.67C60.7519 104.353 58.6016 104.131 56.8918 105.118L53.763 106.924L50.6168 101.475L53.7401 99.6711C55.4476 98.6853 56.3306 96.7151 55.9298 94.7841C55.6505 93.4372 55.5084 92.0515 55.5084 90.6653C55.5084 89.2792 55.6505 87.8939 55.9298 86.5466C56.3306 84.6156 55.448 82.6458 53.7401 81.6595L50.6168 79.8561L53.763 74.4069L56.8918 76.2131C58.6006 77.2003 60.7514 76.9782 62.2235 75.6615C64.3076 73.7977 66.7024 72.4129 69.3418 71.5454C71.2175 70.9289 72.4848 69.178 72.4848 67.2036V63.5977H78.7777V67.2036C78.7777 69.178 80.045 70.9289 81.9207 71.5454C84.56 72.4129 86.9553 73.7981 89.0389 75.6615C90.5101 76.9772 92.6604 77.1998 94.3707 76.2131L97.4995 74.4064L100.646 79.8561L97.5223 81.6595C95.8149 82.6458 94.9319 84.6161 95.3327 86.5466Z" fill="#011627"/>
</svg>
